<svg width="102" height="30" viewBox="0 0 1627 485" fill="none" xmlns="http://www.w3.org/2000/svg">
<path d="M1584.9 388.677C1572.4 388.677 1562.12 384.734 1554.06 376.848C1546.28 368.658 1542.39 358.648 1542.39 346.818C1542.39 334.685 1546.28 324.523 1554.06 316.333C1562.12 308.143 1572.4 304.048 1584.9 304.048C1597.13 304.048 1607.13 308.143 1614.91 316.333C1622.97 324.523 1627 334.685 1627 346.818C1627 358.648 1622.97 368.658 1614.91 376.848C1607.13 384.734 1597.13 388.677 1584.9 388.677Z" fill="#4680FF"/>
<path d="M865.497 388.678H792.533L775.602 338.396H669.985L653.054 388.678H580.896L683.288 104.016H763.106L865.497 388.678ZM969.339 190.82C975.817 180.257 985.128 171.725 997.273 165.225C1009.42 158.724 1023.32 155.475 1038.97 155.475C1057.59 155.475 1074.46 160.215 1089.58 169.694C1104.69 179.174 1116.57 192.717 1125.2 210.322C1134.11 227.927 1138.56 248.377 1138.56 271.67C1138.56 294.963 1134.11 315.548 1125.2 333.424C1116.57 351.029 1104.69 364.707 1089.58 374.458C1074.46 383.938 1057.59 388.678 1038.97 388.678C1023.05 388.678 1009.15 385.563 997.273 379.333C985.397 372.833 976.086 364.3 969.339 353.737V385.427H900.112V84.7822H969.339V190.82ZM1246.25 388.678H1177.02V88.6289H1246.25V388.678ZM1397.07 157.871C1419.32 157.871 1439.1 162.428 1456.4 171.542C1473.71 180.656 1487.17 193.658 1496.79 210.546C1506.68 227.434 1511.62 247.138 1511.62 269.655C1511.62 276.089 1511.21 282.791 1510.39 289.761H1350.91C1352.01 303.7 1356.55 314.423 1364.51 321.929C1372.75 329.166 1382.78 332.785 1394.59 332.785C1412.17 332.785 1424.4 325.547 1431.27 311.071H1506.26C1502.42 325.815 1495.41 339.085 1485.25 350.88C1475.36 362.675 1462.86 371.923 1447.75 378.625C1432.64 385.327 1415.75 388.678 1397.07 388.678C1374.54 388.678 1354.49 383.986 1336.9 374.604C1319.32 365.221 1305.59 351.818 1295.7 334.394C1285.81 316.969 1280.86 296.596 1280.86 273.274C1280.86 249.953 1285.67 229.579 1295.28 212.154C1305.17 194.73 1318.91 181.327 1336.49 171.944C1354.07 162.562 1374.26 157.871 1397.07 157.871ZM1018.32 216.01C1004.56 216.01 992.82 221.021 983.104 231.042C973.658 241.063 968.934 254.742 968.934 272.076C968.934 289.411 973.658 303.089 983.104 313.11C992.82 323.132 1004.56 328.143 1018.32 328.143C1032.09 328.143 1043.83 323.132 1053.55 313.11C1063.26 302.818 1068.12 289.004 1068.12 271.67C1068.12 254.335 1063.26 240.793 1053.55 231.042C1044.1 221.021 1032.36 216.01 1018.32 216.01ZM688.125 284.869H757.865L722.793 180.655L688.125 284.869ZM1396.24 212.959C1384.43 212.959 1374.4 216.31 1366.16 223.012C1358.19 229.713 1353.25 239.23 1351.33 251.561H1439.51C1439.51 239.766 1435.39 230.383 1427.15 223.413C1418.91 216.443 1408.6 212.959 1396.24 212.959Z" fill="#030712"/>
<path d="M4 134.79C4 62.5568 62.5474 4 134.769 4H373.231C445.453 4 504 62.5568 504 134.79V350.21C504 422.443 445.453 481 373.231 481H134.769C62.5474 481 4 422.443 4 350.21V134.79Z" fill="#030712"/>
<path d="M4 134.79C4 62.5568 62.5474 4 134.769 4H373.231C445.453 4 504 62.5568 504 134.79V350.21C504 422.443 445.453 481 373.231 481H134.769C62.5474 481 4 422.443 4 350.21V134.79Z" fill="url(#paint0_linear_3472_1612)" fill-opacity="0.3"/>
<g filter="url(#filter0_f_3472_1612)">
<path d="M134.77 5H373.23C444.9 5 503 63.1088 503 134.79V350.21C503 421.891 444.9 480 373.23 480H134.77C63.1002 480 5.00016 421.891 5 350.21V134.79C5.00014 63.1088 63.1002 5 134.77 5Z" stroke="url(#paint1_linear_3472_1612)" stroke-opacity="0.8" stroke-width="2"/>
</g>
<g filter="url(#filter1_d_3472_1612)">
<g opacity="0.6" filter="url(#filter2_f_3472_1612)">
<path d="M160.89 265.911C160.89 280.602 164.57 291.912 171.929 299.841C179.288 307.769 190.089 311.733 204.332 311.733C218.575 311.733 229.495 307.769 237.092 299.841C244.688 291.912 248.486 280.602 248.486 265.911V119H309.376V265.562C309.376 287.482 304.628 306.02 295.133 321.178C285.637 336.335 272.818 347.762 256.676 355.457C240.771 363.152 222.967 367 203.264 367C183.561 367 165.876 363.269 150.208 355.807C134.778 348.111 122.552 336.685 113.531 321.527C104.511 306.137 100 287.481 100 265.562V119H160.89V265.911ZM408 366.879H348.519V119H408V366.879Z" fill="url(#paint2_linear_3472_1612)"/>
</g>
<mask id="path-6-outside-1_3472_1612" maskUnits="userSpaceOnUse" x="99" y="118" width="310" height="250" fill="black">
<rect fill="white" x="99" y="118" width="310" height="250"/>
<path d="M160.89 265.911C160.89 280.602 164.57 291.912 171.929 299.841C179.288 307.769 190.089 311.733 204.332 311.733C218.575 311.733 229.495 307.769 237.092 299.841C244.688 291.912 248.486 280.602 248.486 265.911V119H309.376V265.562C309.376 287.482 304.628 306.02 295.133 321.178C285.637 336.335 272.818 347.762 256.676 355.457C240.771 363.152 222.967 367 203.264 367C183.561 367 165.876 363.269 150.208 355.807C134.778 348.111 122.552 336.685 113.531 321.527C104.511 306.137 100 287.481 100 265.562V119H160.89V265.911ZM408 366.879H348.519V119H408V366.879Z"/>
</mask>
<g filter="url(#filter3_ii_3472_1612)">
<path d="M160.89 265.911C160.89 280.602 164.57 291.912 171.929 299.841C179.288 307.769 190.089 311.733 204.332 311.733C218.575 311.733 229.495 307.769 237.092 299.841C244.688 291.912 248.486 280.602 248.486 265.911V119H309.376V265.562C309.376 287.482 304.628 306.02 295.133 321.178C285.637 336.335 272.818 347.762 256.676 355.457C240.771 363.152 222.967 367 203.264 367C183.561 367 165.876 363.269 150.208 355.807C134.778 348.111 122.552 336.685 113.531 321.527C104.511 306.137 100 287.481 100 265.562V119H160.89V265.911ZM408 366.879H348.519V119H408V366.879Z" fill="url(#paint3_linear_3472_1612)"/>
</g>
<path d="M160.89 265.911H159.89V265.911H160.89ZM171.929 299.841L171.196 300.521H171.196L171.929 299.841ZM204.332 311.733V312.733V312.733V311.733ZM237.092 299.841L237.814 300.533H237.814L237.092 299.841ZM248.486 265.911H249.486V265.911H248.486ZM248.486 119V118H247.486V119H248.486ZM309.376 119H310.376V118H309.376V119ZM309.376 265.562H310.376V265.562H309.376ZM295.133 321.178L295.98 321.709V321.709L295.133 321.178ZM256.676 355.457L256.245 354.554L256.24 354.557L256.676 355.457ZM203.264 367V368V368V367ZM150.208 355.807L149.762 356.702L149.77 356.706L149.778 356.709L150.208 355.807ZM113.531 321.527L112.668 322.033L112.672 322.039L113.531 321.527ZM100 265.562H99V265.562H100ZM100 119V118H99V119H100ZM160.89 119H161.89V118H160.89V119ZM408 366.879V367.879H409V366.879H408ZM348.519 366.879H347.519V367.879H348.519V366.879ZM348.519 119V118H347.519V119H348.519ZM408 119H409V118H408V119ZM160.89 265.911H159.89C159.89 280.763 163.612 292.35 171.196 300.521L171.929 299.841L172.662 299.161C165.528 291.475 161.89 280.442 161.89 265.911H160.89ZM171.929 299.841L171.196 300.521C178.799 308.713 189.903 312.733 204.332 312.733V311.733V310.733C190.275 310.733 179.777 306.826 172.662 299.161L171.929 299.841ZM204.332 311.733V312.733C218.763 312.733 229.977 308.712 237.814 300.533L237.092 299.841L236.37 299.149C229.014 306.827 218.388 310.733 204.332 310.733V311.733ZM237.092 299.841L237.814 300.533C245.642 292.362 249.486 280.771 249.486 265.911H248.486H247.486C247.486 280.434 243.734 291.462 236.37 299.149L237.092 299.841ZM248.486 265.911H249.486V119H248.486H247.486V265.911H248.486ZM248.486 119V120H309.376V119V118H248.486V119ZM309.376 119H308.376V265.562H309.376H310.376V119H309.376ZM309.376 265.562H308.376C308.376 287.336 303.661 305.681 294.285 320.647L295.133 321.178L295.98 321.709C305.596 306.36 310.376 287.627 310.376 265.562H309.376ZM295.133 321.178L294.285 320.647C284.891 335.643 272.216 346.941 256.245 354.554L256.676 355.457L257.106 356.36C273.42 348.583 286.384 337.027 295.98 321.709L295.133 321.178ZM256.676 355.457L256.24 354.557C240.486 362.179 222.833 366 203.264 366V367V368C223.1 368 241.056 364.125 257.111 356.357L256.676 355.457ZM203.264 367V366C183.689 366 166.154 362.294 150.638 354.904L150.208 355.807L149.778 356.709C165.597 364.244 183.432 368 203.264 368V367ZM150.208 355.807L150.654 354.912C135.4 347.304 123.316 336.013 114.391 321.016L113.531 321.527L112.672 322.039C121.788 337.357 134.156 348.919 149.762 356.702L150.208 355.807ZM113.531 321.527L114.394 321.022C105.482 305.816 101 287.344 101 265.562H100H99C99 287.619 103.54 306.458 112.669 322.033L113.531 321.527ZM100 265.562H101V119H100H99V265.562H100ZM100 119V120H160.89V119V118H100V119ZM160.89 119H159.89V265.911H160.89H161.89V119H160.89ZM408 366.879V365.879H348.519V366.879V367.879H408V366.879ZM348.519 366.879H349.519V119H348.519H347.519V366.879H348.519ZM348.519 119V120H408V119V118H348.519V119ZM408 119H407V366.879H408H409V119H408Z" fill="white" mask="url(#path-6-outside-1_3472_1612)"/>
</g>
<defs>
<filter id="filter0_f_3472_1612" x="0" y="0" width="508" height="485" filterUnits="userSpaceOnUse" color-interpolation-filters="sRGB">
<feFlood flood-opacity="0" result="BackgroundImageFix"/>
<feBlend mode="normal" in="SourceGraphic" in2="BackgroundImageFix" result="shape"/>
<feGaussianBlur stdDeviation="2" result="effect1_foregroundBlur_3472_1612"/>
</filter>
<filter id="filter1_d_3472_1612" x="91" y="102" width="342" height="282" filterUnits="userSpaceOnUse" color-interpolation-filters="sRGB">
<feFlood flood-opacity="0" result="BackgroundImageFix"/>
<feColorMatrix in="SourceAlpha" type="matrix" values="0 0 0 0 0 0 0 0 0 0 0 0 0 0 0 0 0 0 127 0" result="hardAlpha"/>
<feOffset dx="8"/>
<feGaussianBlur stdDeviation="8"/>
<feComposite in2="hardAlpha" operator="out"/>
<feColorMatrix type="matrix" values="0 0 0 0 0 0 0 0 0 0 0 0 0 0 0 0 0 0 0.5 0"/>
<feBlend mode="normal" in2="BackgroundImageFix" result="effect1_dropShadow_3472_1612"/>
<feBlend mode="normal" in="SourceGraphic" in2="effect1_dropShadow_3472_1612" result="shape"/>
</filter>
<filter id="filter2_f_3472_1612" x="80" y="99" width="348" height="288" filterUnits="userSpaceOnUse" color-interpolation-filters="sRGB">
<feFlood flood-opacity="0" result="BackgroundImageFix"/>
<feBlend mode="normal" in="SourceGraphic" in2="BackgroundImageFix" result="shape"/>
<feGaussianBlur stdDeviation="0" result="effect1_foregroundBlur_3472_1612"/>
</filter>
<filter id="filter3_ii_3472_1612" x="97" y="114" width="316" height="256" filterUnits="userSpaceOnUse" color-interpolation-filters="sRGB">
<feFlood flood-opacity="0" result="BackgroundImageFix"/>
<feBlend mode="normal" in="SourceGraphic" in2="BackgroundImageFix" result="shape"/>
<feColorMatrix in="SourceAlpha" type="matrix" values="0 0 0 0 0 0 0 0 0 0 0 0 0 0 0 0 0 0 127 0" result="hardAlpha"/>
<feOffset dx="-3" dy="3"/>
<feGaussianBlur stdDeviation="1"/>
<feComposite in2="hardAlpha" operator="arithmetic" k2="-1" k3="1"/>
<feColorMatrix type="matrix" values="0 0 0 0 0 0 0 0 0 0 0 0 0 0 0 0 0 0 0.4 0"/>
<feBlend mode="normal" in2="shape" result="effect1_innerShadow_3472_1612"/>
<feColorMatrix in="SourceAlpha" type="matrix" values="0 0 0 0 0 0 0 0 0 0 0 0 0 0 0 0 0 0 127 0" result="hardAlpha"/>
<feOffset dx="5" dy="-6"/>
<feGaussianBlur stdDeviation="2"/>
<feComposite in2="hardAlpha" operator="arithmetic" k2="-1" k3="1"/>
<feColorMatrix type="matrix" values="0 0 0 0 1 0 0 0 0 1 0 0 0 0 1 0 0 0 0.3 0"/>
<feBlend mode="normal" in2="effect1_innerShadow_3472_1612" result="effect2_innerShadow_3472_1612"/>
</filter>
<linearGradient id="paint0_linear_3472_1612" x1="254" y1="-75" x2="254" y2="432.616" gradientUnits="userSpaceOnUse">
<stop stop-color="#F3F4F6"/>
<stop offset="1" stop-color="#030712"/>
</linearGradient>
<linearGradient id="paint1_linear_3472_1612" x1="254" y1="4" x2="254" y2="481" gradientUnits="userSpaceOnUse">
<stop stop-color="white"/>
<stop offset="0.2" stop-color="white" stop-opacity="0"/>
<stop offset="0.8" stop-color="white" stop-opacity="0"/>
<stop offset="1" stop-color="white"/>
</linearGradient>
<linearGradient id="paint2_linear_3472_1612" x1="254.1" y1="243.864" x2="254.1" y2="367.436" gradientUnits="userSpaceOnUse">
<stop stop-color="white"/>
<stop offset="1" stop-color="#6A7282"/>
</linearGradient>
<linearGradient id="paint3_linear_3472_1612" x1="253.801" y1="243" x2="253.801" y2="427.062" gradientUnits="userSpaceOnUse">
<stop stop-color="white"/>
<stop offset="1" stop-color="#030712"/>
</linearGradient>
</defs>
</svg>
