<svg width="102" height="30" viewBox="0 0 102 30" fill="none" xmlns="http://www.w3.org/2000/svg">
<path d="M0 8.22581C0 3.68282 3.67933 0 8.21801 0H23.2038C27.7425 0 31.4218 3.68282 31.4218 8.22581V21.7742C31.4218 26.3172 27.7425 30 23.2038 30H8.21801C3.67933 30 0 26.3172 0 21.7742V8.22581Z" fill="#F9FAFB"/>
<path d="M10.0098 7.25806V16.4305C10.0098 17.3477 10.2349 18.0538 10.6852 18.5488C11.1354 19.0439 11.7963 19.2914 12.6677 19.2914C13.5392 19.2914 14.2073 19.0439 14.6721 18.5488C15.1369 18.0538 15.3692 17.3477 15.3692 16.4305V7.25806H19.0947V16.4086C19.0947 17.7772 18.8042 18.9347 18.2233 19.881C17.6423 20.8274 16.858 21.5408 15.8703 22.0212C14.8972 22.5017 13.8079 22.7419 12.6024 22.7419C11.3969 22.7419 10.3148 22.509 9.35619 22.0431C8.41211 21.5626 7.66411 20.8492 7.11219 19.9029C6.56026 18.9419 6.2843 17.7772 6.2843 16.4086V7.25806H10.0098Z" fill="#101828"/>
<path d="M25.1374 7.25806V22.7419H21.5118V7.25806H25.1374Z" fill="#101828"/>
<path d="M99.3544 24.1935C98.5685 24.1935 97.9224 23.9455 97.4159 23.4495C96.927 22.9344 96.6825 22.3049 96.6825 21.5609C96.6825 20.7978 96.927 20.1587 97.4159 19.6436C97.9224 19.1285 98.5685 18.871 99.3544 18.871C100.123 18.871 100.751 19.1285 101.24 19.6436C101.747 20.1587 102 20.7978 102 21.5609C102 22.3049 101.747 22.9344 101.24 23.4495C100.751 23.9455 100.123 24.1935 99.3544 24.1935Z" fill="#4680FF"/>
<path d="M54.1427 24.1939H49.5568L48.4923 21.0308H41.8546L40.7911 24.1939H36.256L42.6906 6.2906H47.7072L54.1427 24.1939ZM60.6681 11.7496C61.0752 11.0852 61.6607 10.549 62.424 10.1402C63.1871 9.73144 64.0604 9.52699 65.0441 9.52693C66.2144 9.52693 67.2749 9.82525 68.2247 10.4215C69.1745 11.0177 69.9212 11.869 70.464 12.9762C71.0237 14.0834 71.3038 15.3696 71.3038 16.8345C71.3038 18.2994 71.0237 19.5941 70.464 20.7183C69.9212 21.8256 69.1746 22.6861 68.2247 23.2994C67.2749 23.8956 66.2144 24.1939 65.0441 24.1939C64.0435 24.1939 63.1701 23.9977 62.424 23.606C61.6776 23.1972 61.0921 22.66 60.6681 21.9957V23.9888H56.3175V5.08064H60.6681V11.7496ZM78.0714 24.1939H73.7208V5.32283H78.0714V24.1939ZM87.5499 9.67732C88.9482 9.67738 90.1909 9.96451 91.2784 10.5377C92.3661 11.1109 93.2123 11.9286 93.8165 12.9908C94.4379 14.0528 94.7491 15.2917 94.7491 16.7076C94.7491 17.1122 94.7228 17.5339 94.671 17.9722H84.6486C84.7176 18.8489 85.0034 19.5236 85.504 19.9957C86.0218 20.4506 86.6516 20.6782 87.3937 20.6783C88.4986 20.6783 89.2677 20.2234 89.6993 19.3131H94.4122C94.1706 20.24 93.7304 21.0744 93.0919 21.816C92.4704 22.5578 91.6841 23.1396 90.7345 23.5611C89.7851 23.9825 88.7237 24.1939 87.5499 24.1939C86.1342 24.1939 84.8736 23.8983 83.7687 23.3082C82.6638 22.7182 81.8004 21.8756 81.1788 20.7799C80.5573 19.684 80.2462 18.4019 80.2462 16.9351C80.2463 15.4685 80.5483 14.1872 81.1525 13.0914C81.774 11.9955 82.6374 11.1522 83.7423 10.5621C84.8473 9.972 86.117 9.67732 87.5499 9.67732ZM63.7472 13.3336C62.8822 13.3336 62.1439 13.6488 61.5333 14.2789C60.9397 14.9091 60.6427 15.7698 60.6427 16.8599C60.6427 17.9502 60.9397 18.8107 61.5333 19.441C62.1439 20.0712 62.8822 20.3863 63.7472 20.3863C64.612 20.3862 65.3496 20.0711 65.9601 19.441C66.5707 18.7937 66.8761 17.9248 66.8761 16.8345C66.8761 15.7443 66.5707 14.8921 65.9601 14.2789C65.3666 13.649 64.6289 13.3336 63.7472 13.3336ZM42.9952 17.6646H47.3781L45.174 11.1099L42.9952 17.6646ZM87.4982 13.1422C86.756 13.1422 86.1254 13.3527 85.6075 13.774C85.1069 14.1955 84.7958 14.7944 84.6749 15.5699H90.2169C90.2169 14.8281 89.9575 14.2377 89.4396 13.7994C88.9218 13.3613 88.2747 13.1423 87.4982 13.1422Z" fill="#F9FAFB"/>
</svg>
